<svg height="512pt" viewBox="0 0 512 512" width="512pt" xmlns="http://www.w3.org/2000/svg" xmlns:xlink="http://www.w3.org/1999/xlink"><linearGradient id="a" gradientTransform="matrix(1 0 0 -1 0 -16582)" gradientUnits="userSpaceOnUse" x1="0" x2="512" y1="-16838" y2="-16838"><stop offset="0" stop-color="#00f38d"/><stop offset="1" stop-color="#009eff"/></linearGradient><path d="m512 256c0 141.386719-114.613281 256-256 256s-256-114.613281-256-256 114.613281-256 256-256 256 114.613281 256 256zm0 0" fill="url(#a)"/><path d="m256 55.878906c-110.28125 0-200 89.71875-200 200 0 110.277344 89.71875 200 200 200s200-89.722656 200-200c0-110.28125-89.71875-200-200-200zm0 30c62.605469 0 117.40625 34.023438 146.910156 84.542969h-143.136718c-1.253907-.054687-2.507813-.09375-3.773438-.09375-36.988281 0-68.5625 23.597656-80.472656 56.527344l-47.933594-82.269531c31.191406-35.941407 77.191406-58.707032 128.40625-58.707032zm55.550781 170c0 30.628906-24.917969 55.550782-55.550781 55.550782-20.832031 0-39.011719-11.535157-48.519531-28.542969l.515625-.300781-3.597656-6.179688c-2.539063-6.355469-3.949219-13.277344-3.949219-20.527344 0-30.632812 24.917969-55.554687 55.550781-55.554687.789062 0 1.570312.027343 2.351562.0625v.035156h.808594c29.164063 1.644531 52.390625 25.886719 52.390625 55.457031zm-225.550781 0c0-30.722656 8.191406-59.566406 22.503906-84.460937l68.972656 118.371093c13.15625 30.351563 43.394532 51.640626 78.523438 51.640626 5.980469 0 11.8125-.621094 17.449219-1.792969l-47.070313 83.652343c-79.667968-14.058593-140.378906-83.773437-140.378906-167.410156zm173.367188 169.957032 71.207031-126.542969-.679688-.382813c7.394531-12.652344 11.65625-27.347656 11.65625-43.03125 0-21.144531-7.726562-40.511718-20.484375-55.457031h95.636719c6.019531 17.390625 9.296875 36.046875 9.296875 55.457031 0 92.609375-74.441406 168.15625-166.632812 169.957032zm0 0" fill="#fff"/></svg>